<svg  viewBox="0 0 70 56" fill="red" xmlns="http://www.w3.org/2000/svg">
<g clip-path="url(#clip0_1374_368)">
<path d="M39.7964 16.87L38.4956 15.87C38.2923 15.7043 38.0323 15.626 37.772 15.6522C37.5117 15.6784 37.2722 15.807 37.1055 16.01L19.1035 36.83L19.3815 37.14L23.8398 33C23.6913 32.9398 23.5683 32.8291 23.4924 32.6871C23.4164 32.5451 23.3923 32.3807 23.4242 32.2227C23.456 32.0646 23.5419 31.9227 23.6668 31.8218C23.7917 31.7208 23.9478 31.6671 24.1079 31.67C24.2523 31.67 24.3929 31.7166 24.5091 31.803C24.6253 31.8894 24.7109 32.011 24.7533 32.15L30.6315 26.66C30.7215 26.587 30.8337 26.5472 30.9493 26.5472C31.0649 26.5472 31.177 26.587 31.267 26.66L31.5649 26.88C31.6657 26.9528 31.7898 26.9849 31.9129 26.9701C32.0361 26.9553 32.1492 26.8946 32.2302 26.8L39.9155 18.12C39.9972 18.0339 40.0595 17.931 40.0982 17.8184C40.1369 17.7058 40.1511 17.5862 40.1398 17.4676C40.1284 17.349 40.0919 17.2343 40.0327 17.1312C39.9734 17.028 39.8928 16.939 39.7964 16.87Z" fill="#303030"/>
<path d="M48.2561 22.73C44.3166 25.553 39.9034 27.6364 35.2288 28.88C30.5892 30.0683 25.8418 30.7786 21.0596 31C21.1559 31.7102 21.329 32.4077 21.5759 33.08C24.2767 35.54 44.6121 31.34 48.5838 26.48C49.4278 25.47 48.2561 22.73 48.2561 22.73ZM24.1079 33C23.9743 33 23.8438 32.9601 23.7328 32.8854C23.6217 32.8107 23.5352 32.7045 23.4841 32.5802C23.433 32.4559 23.4196 32.3192 23.4457 32.1873C23.4717 32.0554 23.536 31.9342 23.6305 31.8391C23.7249 31.744 23.8452 31.6793 23.9762 31.653C24.1071 31.6268 24.2429 31.6403 24.3663 31.6917C24.4897 31.7432 24.5951 31.8304 24.6693 31.9422C24.7435 32.054 24.7831 32.1855 24.7831 32.32C24.7844 32.4097 24.7679 32.4987 24.7344 32.5818C24.701 32.6649 24.6513 32.7404 24.5883 32.8038C24.5253 32.8672 24.4504 32.9173 24.3679 32.951C24.2853 32.9847 24.1969 33.0013 24.1079 33Z" fill="#303030"/>
<path d="M4.89501 21.2899L5.05388 20.5999L7.63552 21.1899C7.84851 21.5861 7.9802 22.0214 8.02277 22.4699C8.07205 22.945 8.04184 23.425 7.9334 23.8899C7.80487 24.5352 7.51042 25.1352 7.07948 25.6299C6.66948 26.097 6.14083 26.4428 5.55035 26.6299C4.94177 26.8189 4.29449 26.8431 3.6737 26.6999C3.05154 26.5646 2.47807 26.2603 2.01549 25.8199C1.56 25.3969 1.23292 24.8526 1.0722 24.2499C0.893902 23.5954 0.893902 22.9045 1.0722 22.2499C1.17892 21.76 1.3705 21.2929 1.63817 20.8699C1.89151 20.4853 2.2318 20.1665 2.63111 19.9399L2.98857 20.4899C2.64631 20.7016 2.35251 20.9839 2.12658 21.3183C1.90065 21.6527 1.74772 22.0316 1.67789 22.4299C1.55475 22.9473 1.56501 23.4877 1.70768 23.9999C1.8411 24.4863 2.10575 24.9259 2.47224 25.2699C2.84894 25.6367 3.32024 25.8896 3.83257 25.9999C4.32936 26.1404 4.85497 26.1404 5.35176 25.9999C5.82767 25.8417 6.25511 25.5628 6.59294 25.1899C6.94011 24.7873 7.17936 24.3019 7.28799 23.7799C7.45136 23.1468 7.40962 22.4776 7.16884 21.8699L4.89501 21.2899Z" fill="#303030"/>
<path d="M10.5147 15.0001L8.20116 18.1101L9.1941 19.9001L8.73735 20.5201L5.06348 13.7701L5.49044 13.1801L12.9673 14.8001L12.5006 15.4201L10.5147 15.0001ZM9.85937 14.8401L5.88762 13.9401L7.87349 17.5301L9.85937 14.8401Z" fill="#303030"/>
<path d="M9.85938 8.54998L10.4551 8.09998L14.2382 13.2L17.3561 10.85L17.7334 11.36L14.0297 14.15L9.85938 8.54998Z" fill="#303030"/>
<path d="M16.1152 4.37996L16.7805 4.07996L19.4019 9.85996L22.9467 8.23996L23.2048 8.81996L18.9948 10.75L16.1152 4.37996Z" fill="#303030"/>
<path d="M29.2013 6.68003L29.3502 7.31003L24.5643 8.44003L22.9756 1.62003L27.6225 0.530029L27.7615 1.15003L23.7898 2.08003L24.3558 4.50003L27.8509 3.67003L27.9999 4.29003L24.4948 5.11003L25.0905 7.64003L29.2013 6.68003Z" fill="#303030"/>
<path d="M36.0234 6.92997L34.3652 4.72997C34.18 4.74029 33.9944 4.74029 33.8092 4.72997L31.9425 4.78997L32.012 7.00997H31.2772L31.0488 0.00996866L33.69 -3.1339e-05C34.4368 -0.0694894 35.1836 0.132721 35.7951 0.569969C36.0528 0.778962 36.26 1.04418 36.401 1.3456C36.5421 1.64702 36.6133 1.97678 36.6093 2.30997C36.6383 2.80416 36.5095 3.29473 36.2419 3.70997C35.9566 4.10853 35.5534 4.40603 35.0901 4.55997L36.8277 6.89997L36.0234 6.92997ZM35.3284 3.63997C35.5069 3.47531 35.6453 3.27154 35.7332 3.04439C35.821 2.81725 35.8557 2.57281 35.8348 2.32997C35.8399 2.08584 35.7898 1.84374 35.6883 1.62198C35.5868 1.40022 35.4366 1.20461 35.249 1.04997C34.7913 0.737448 34.241 0.592707 33.69 0.639969L31.8035 0.709969L31.9226 4.20997L33.7695 4.14997C34.3326 4.17096 34.885 3.99026 35.3284 3.63997Z" fill="#303030"/>
<path d="M41.2762 5.07L40.9187 7.46L40.1939 7.35L40.5612 5L38.5059 0L39.2804 0.12L41.0379 4.38L44.0167 0.85L44.7117 1L41.2762 5.07Z" fill="#303030"/>
<path d="M51.0961 4.65005L51.9599 5.78005L51.5826 6.08005L50.7188 4.92005L50.1727 6.23005L49.7556 6.05005L50.3117 4.74005L48.8818 4.93005V4.45005L50.2918 4.29005L49.418 3.16005L49.8053 2.86005L50.5698 4.00005L51.106 2.68005L51.533 2.86005L51.0266 4.20005L52.4564 4.00005V4.49005L51.0961 4.65005Z" fill="#303030"/>
<path d="M54.4123 12.71C54.1778 12.346 54.0316 11.9315 53.9854 11.5L54.5712 11.24C54.6151 11.6364 54.7439 12.0185 54.9485 12.36C55.1703 12.743 55.4597 13.0819 55.8024 13.36C56.1564 13.7013 56.608 13.9217 57.0932 13.99C57.2686 14.0064 57.4453 13.9794 57.6079 13.9115C57.7705 13.8435 57.9143 13.7366 58.0266 13.6C58.109 13.5085 58.1717 13.4009 58.211 13.284C58.2503 13.167 58.2653 13.0431 58.255 12.92C58.2221 12.6763 58.1411 12.4417 58.0167 12.23C57.8301 11.9231 57.6279 11.626 57.411 11.34C57.1466 10.9912 56.9077 10.6236 56.6961 10.24C56.5343 9.95296 56.4456 9.63003 56.4379 9.30004C56.4372 8.92946 56.5755 8.5723 56.8252 8.30004C57.0415 8.03617 57.3271 7.83869 57.6493 7.73004C58.0093 7.62531 58.3914 7.62531 58.7515 7.73004C59.2153 7.88282 59.6441 8.12763 60.0125 8.45004C60.3182 8.70611 60.5887 9.00205 60.8168 9.33004C61.0277 9.6342 61.1855 9.97239 61.2835 10.33L60.7175 10.63C60.6188 10.2967 60.4715 9.97991 60.2806 9.69004C60.0904 9.43118 59.8666 9.19913 59.6153 9.00004C59.2666 8.66028 58.8164 8.44587 58.3344 8.39004C58.1573 8.37512 57.9793 8.40478 57.8163 8.47635C57.6534 8.54792 57.5107 8.65915 57.4011 8.80004C57.3166 8.89013 57.2525 8.99753 57.2131 9.11489C57.1736 9.23226 57.1599 9.35681 57.1727 9.48004C57.1959 9.73221 57.2775 9.97538 57.411 10.19C57.55 10.42 57.7486 10.72 58.0167 11.08C58.2825 11.4208 58.5215 11.7819 58.7316 12.16C58.8968 12.4462 58.9889 12.7692 58.9997 13.1C59.0004 13.4706 58.8621 13.8278 58.6124 14.1C58.3953 14.3675 58.1054 14.5656 57.7784 14.67C57.419 14.7793 57.0356 14.7793 56.6762 14.67C56.2092 14.5177 55.777 14.2729 55.4053 13.95C55.0044 13.5987 54.6683 13.179 54.4123 12.71Z" fill="#303030"/>
<path d="M64.4017 14.17L63.0017 12.17L63.518 11.8L66.7451 16.44L66.2287 16.81L64.8287 14.81L59.6455 18.46L59.2285 17.85L64.4017 14.17Z" fill="#303030"/>
<path d="M62.1774 22.39C62.3547 21.7856 62.6991 21.2445 63.1704 20.83C63.6314 20.4141 64.193 20.1279 64.7988 20C65.4163 19.8572 66.0603 19.8814 66.6655 20.07C67.2497 20.2645 67.7733 20.6092 68.1847 21.07C68.6124 21.5656 68.9035 22.1656 69.0287 22.81C69.1932 23.4426 69.1932 24.1073 69.0287 24.74C68.8466 25.3421 68.503 25.8819 68.0358 26.3C67.562 26.727 66.9865 27.0233 66.3653 27.16C65.7442 27.2967 65.0984 27.2691 64.491 27.08C63.9023 26.8949 63.3763 26.5487 62.9718 26.08C62.546 25.587 62.2551 24.9907 62.1278 24.35C61.9761 23.7033 61.9932 23.028 62.1774 22.39ZM63.4782 25.57C63.8097 25.9502 64.2393 26.2306 64.7193 26.38C65.2141 26.5245 65.7371 26.5417 66.2402 26.4298C66.7432 26.318 67.2104 26.0808 67.5989 25.74C67.9653 25.4004 68.236 24.9691 68.3833 24.49C68.5217 23.9841 68.5353 23.4517 68.4228 22.9393C68.3103 22.4269 68.0752 21.95 67.7379 21.55C67.3918 21.1679 66.949 20.8879 66.457 20.74C65.956 20.606 65.4289 20.606 64.9279 20.74C64.4223 20.8377 63.9543 21.0768 63.5775 21.43C63.2076 21.7708 62.9365 22.2062 62.793 22.69C62.6582 23.1977 62.6582 23.7322 62.793 24.24C62.9018 24.7361 63.1381 25.1947 63.4782 25.57Z" fill="#303030"/>
<path d="M61.423 34L63.9947 33C63.9947 32.82 64.0543 32.64 64.104 32.45L64.5905 30.64L62.4855 30.09L62.6741 29.38L69.3864 31.19L68.7112 33.72C68.5591 34.4582 68.1507 35.1177 67.5594 35.58C67.2877 35.7701 66.976 35.8942 66.6487 35.9428C66.3214 35.9914 65.9874 35.963 65.6728 35.86C65.1936 35.7553 64.7643 35.4892 64.4556 35.1056C64.1469 34.722 63.9773 34.2438 63.9749 33.75L61.2344 34.75L61.423 34ZM64.7494 34.28C64.8657 34.4925 65.0235 34.6792 65.2133 34.8287C65.403 34.9782 65.6209 35.0876 65.8537 35.1502C66.0865 35.2128 66.3294 35.2273 66.568 35.1929C66.8065 35.1585 67.0356 35.0759 67.2417 34.95C67.6799 34.5955 67.979 34.0958 68.0856 33.54L68.5623 31.74L65.1962 30.83L64.7196 32.63C64.5364 33.1664 64.5469 33.7507 64.7494 34.28Z" fill="#303030"/>
<path d="M57.858 40.44L57.3516 40.05L60.3304 36.1L65.871 40.33L62.9914 44.16L62.4851 43.77L64.9177 40.54L62.9319 39.03L60.7573 41.92L60.2609 41.54L62.4851 38.65L60.4297 37.08L57.858 40.44Z" fill="#303030"/>
<path d="M55.5342 48.41L54.1143 48.49V48.01L55.5342 48L54.7696 46.81L55.1568 46.56L55.9115 47.76L56.5271 46.42L56.9541 46.65L56.2789 47.91L57.6988 47.83V48.32H56.259L57.0236 49.51L56.6363 49.76L55.8817 48.56L55.2263 49.86L54.8093 49.62L55.5342 48.41Z" fill="#303030"/>
<path d="M42.6263 47.61L43.8278 48.28C44.0292 47.8904 44.3103 47.5481 44.6526 47.2757C44.9949 47.0034 45.3906 46.8072 45.8137 46.7C46.2083 46.5761 46.6233 46.5319 47.035 46.57C47.3921 46.5976 47.7352 46.722 48.0279 46.93C48.2925 47.1309 48.4871 47.4109 48.584 47.73C48.7036 48.1248 48.6826 48.5493 48.5244 48.93C48.2752 49.4474 47.9393 49.9176 47.5314 50.32C47.8588 50.4972 48.1624 50.7156 48.435 50.97C48.6223 51.1649 48.7617 51.4012 48.8421 51.66C48.893 51.8618 48.8962 52.0728 48.8513 52.276C48.8065 52.4792 48.7149 52.669 48.584 52.83C48.3189 53.2147 47.9234 53.4885 47.4719 53.6C47.0754 53.7523 46.6371 53.7523 46.2406 53.6C46.0643 53.5237 45.908 53.4072 45.7839 53.2597C45.6599 53.1122 45.5715 52.9377 45.5257 52.75C45.4216 52.4199 45.4465 52.0623 45.5952 51.75C45.8231 51.2954 46.1214 50.8802 46.4789 50.52L44.0859 49.18C43.9946 49.651 43.9746 50.1331 44.0264 50.61H43.4207C43.3799 50.0227 43.4472 49.4328 43.6193 48.87L42.3682 48.17L42.6263 47.61ZM44.354 48.61L46.9853 50.08C47.3302 49.7484 47.6157 49.3593 47.8293 48.93C47.9384 48.6401 47.9384 48.32 47.8293 48.03C47.7843 47.8568 47.6972 47.6975 47.5759 47.5666C47.4545 47.4357 47.3028 47.3372 47.1343 47.28C46.7221 47.1398 46.2755 47.1398 45.8633 47.28C45.5265 47.3695 45.2132 47.5323 44.9456 47.7569C44.6779 47.9815 44.4625 48.2625 44.3143 48.58L44.354 48.61ZM48.0875 52.61C48.1524 52.4995 48.193 52.3763 48.2067 52.2487C48.2204 52.1211 48.2069 51.9919 48.1669 51.87C48.1061 51.6726 47.9968 51.4937 47.8492 51.35C47.5964 51.1353 47.3199 50.9508 47.025 50.8C46.724 51.0998 46.4606 51.4357 46.2406 51.8C46.1206 52.0272 46.0921 52.2923 46.1612 52.54C46.1927 52.6545 46.2479 52.7609 46.3232 52.8522C46.3985 52.9436 46.4922 53.0178 46.5981 53.07C46.8509 53.166 47.1297 53.166 47.3825 53.07C47.6525 52.9975 47.8882 52.831 48.0478 52.6L48.0875 52.61Z" fill="#303030"/>
<path d="M30.5225 55.3199L30.6615 48.3199H31.3665L31.2572 53.9199L34.0772 49.2599H34.4247L37.0659 53.9999L37.1652 48.4299H37.8702L37.7411 55.4299H37.1354L34.2162 50.1999L31.1282 55.3299L30.5225 55.3199Z" fill="#303030"/>
<path d="M27.0667 48C27.5208 48.4358 27.8457 48.9901 28.0052 49.601C28.1648 50.212 28.1527 50.8556 27.9703 51.46C27.8071 52.0789 27.4812 52.642 27.027 53.09C26.5855 53.527 26.032 53.8317 25.4283 53.97C24.7916 54.1147 24.1287 54.094 23.502 53.91C22.8775 53.7564 22.3029 53.4429 21.8339 53C21.3866 52.5697 21.0669 52.0227 20.9105 51.42C20.7578 50.7969 20.769 50.1446 20.9432 49.5273C21.1173 48.91 21.4483 48.3491 21.9034 47.9C22.337 47.4641 22.8788 47.1533 23.4723 47C24.1057 46.8557 24.7653 46.8763 25.3886 47.06C26.0196 47.221 26.598 47.545 27.0667 48ZM23.6808 47.65C23.1951 47.7639 22.7511 48.0134 22.3999 48.37C22.0341 48.7369 21.7734 49.1963 21.6453 49.7C21.5068 50.2004 21.5068 50.7295 21.6453 51.23C21.7624 51.7169 22.0136 52.1606 22.3701 52.51C22.7439 52.8782 23.2056 53.1433 23.7106 53.28C24.2155 53.4095 24.7447 53.4095 25.2496 53.28C25.7357 53.1596 26.1812 52.9111 26.5404 52.56C26.9043 52.1916 27.1646 51.7327 27.2951 51.23C27.4339 50.7262 27.4339 50.1938 27.2951 49.69C27.168 49.2049 26.9143 48.7629 26.5603 48.41C26.1845 48.0413 25.7186 47.7791 25.2099 47.65C24.7096 47.5107 24.1811 47.5107 23.6808 47.65Z" fill="#303030"/>
<path d="M16.1645 43L16.4326 45.75C16.6029 45.8233 16.7687 45.9068 16.929 46L18.5475 46.94L19.6398 45L20.2852 45.37L16.8099 51.4L14.546 50.09C13.8768 49.7515 13.3489 49.1844 13.0566 48.49C12.9486 48.1772 12.9122 47.8439 12.95 47.5149C12.9879 47.1859 13.099 46.8698 13.275 46.59C13.5058 46.1518 13.8717 45.8008 14.3176 45.59C14.7705 45.4011 15.2713 45.3626 15.7474 45.48L15.4595 42.54L16.1645 43ZM15.0325 46.16C14.7993 46.219 14.5803 46.3247 14.3886 46.4708C14.1969 46.617 14.0365 46.8006 13.9169 47.0107C13.7973 47.2207 13.721 47.4529 13.6926 47.6934C13.6642 47.9338 13.6843 48.1776 13.7516 48.41C13.9844 48.9276 14.3879 49.3481 14.8935 49.6L16.4921 50.53L18.2298 47.53L16.6312 46.6C16.1717 46.2533 15.6059 46.0799 15.0325 46.11V46.16Z" fill="#303030"/>
<path d="M10.2864 38.31L10.7332 37.86L14.1589 41.41L9.19418 46.29L5.8877 42.85L6.34445 42.4L9.15446 45.31L10.8524 43.58L8.3899 41L8.86651 40.54L11.3786 43.14L13.2255 41.33L10.2864 38.31Z" fill="#303030"/>
<path d="M2.90869 34.38L3.147 33L3.61368 33.07L3.34559 34.49L4.66619 34L4.82506 34.44L3.4846 34.9L4.58676 35.84L4.26902 36.2L3.20657 35.2L2.95834 36.62L2.48173 36.53L2.75975 35.11L1.42921 35.59L1.28027 35.2L2.61081 34.73L1.50865 33.8L1.83632 33.44L2.90869 34.38Z" fill="#303030"/>
</g>
<defs>
<clipPath id="clip0_1374_368">
<rect width="68.4432" height="55.46" fill="white" transform="translate(0.922852)"/>
</clipPath>
</defs>
</svg>
